# xmcd
#
# Track frame offsets: 
#        150
#        3590
#        14710
#        19196
#        33967
#        43878
#        57730
#        70684
#        75686
#        92369
#        107312
#        122662
#        136205
#        147171
#        160716
#        176208
#        197034
#
# Disc length: 2760 seconds
#
# Revision: 1
# Processed by: cddbd v1.5.2PL0 Copyright (c) Steve Scherf et al.
# Submitted via: ExactAudioCopy v0.99pb1
#
DISCID=e10ac611
DTITLE=Mighty Mo Rodgers - Redneck Blues
DYEAR=2007
DGENRE=Blues
TTITLE0=Welcome To Doo Dah
TTITLE1=The Antebellum South Shufle(Pt.1)
TTITLE2=The Ashes Of Nicodemus
TTITLE3=The Antebellum South Shuffle  (Pt.2)
TTITLE4=John Brown Blues
TTITLE5=Hambone Blues
TTITLE6=Don't Die With A Lie(On Your Lip)
TTITLE7=No Second Line(This Time)
TTITLE8=There But For The Grace Of God
TTITLE9=Death Of The Middle Class
TTITLE10=Truth, Justice And The Blues
TTITLE11=Blues Ain`t Devil Music
TTITLE12=... Everything But The Burden
TTITLE13=Gangs,Guns And Testosterone
TTITLE14=They Bombed The Taj Mahal!
TTITLE15=Have You Seen the Americab Dream? (Pt.2)
TTITLE16=Redneck Blues
EXTD=
EXTT0=
EXTT1=
EXTT2=
EXTT3=
EXTT4=
EXTT5=
EXTT6=
EXTT7=
EXTT8=
EXTT9=
EXTT10=
EXTT11=
EXTT12=
EXTT13=
EXTT14=
EXTT15=
EXTT16=
PLAYORDER=
